<?xml version="1.0" standalone="no"?>
<!DOCTYPE svg PUBLIC "-//W3C//DTD SVG 20010904//EN"
 "http://www.w3.org/TR/2001/REC-SVG-20010904/DTD/svg10.dtd">
<svg version="1.0" xmlns="http://www.w3.org/2000/svg"
 width="58.000000pt" height="59.000000pt" viewBox="0 0 58.000000 59.000000"
 preserveAspectRatio="xMidYMid meet">

<g transform="translate(0.000000,59.000000) scale(0.100000,-0.100000)"
fill="#000000" stroke="none">
<path d="M255 563 c-88 -20 -151 -66 -185 -134 -60 -116 -17 -259 97 -326 41
-24 59 -28 123 -28 64 0 82 4 123 28 207 122 141 429 -98 460 -22 3 -49 3 -60
0z m155 -145 c-1 -13 -13 -54 -28 -92 l-27 -70 -83 -33 c-46 -18 -87 -31 -93
-28 -15 10 -11 34 18 112 l28 73 75 30 c92 36 110 37 110 8z"/>
<path d="M270 335 c-17 -20 -5 -45 20 -45 11 0 23 7 26 15 6 15 -11 45 -26 45
-4 0 -13 -7 -20 -15z"/>
</g>
</svg>
